<svg width="23" height="22" viewBox="0 0 23 22" fill="none" xmlns="http://www.w3.org/2000/svg">
<g clip-path="url(#clip0_13_1811)">
<path d="M15.704 0.442584C15.6591 0.392388 14.0409 0.462398 12.6328 1.99073C11.2246 3.51775 11.4413 5.26932 11.473 5.31423C11.5047 5.35914 13.4808 5.42915 14.7423 3.65248C16.0038 1.87581 15.7489 0.494101 15.704 0.442584ZM20.0816 15.9412C20.0182 15.8144 17.0104 14.3112 17.2904 11.421C17.5705 8.52942 19.503 7.73685 19.5334 7.65099C19.5638 7.56512 18.7448 6.60744 17.8769 6.12265C17.2397 5.78086 16.5345 5.58504 15.8123 5.54936C15.6696 5.5454 15.1743 5.42387 14.1558 5.70259C13.4848 5.8862 11.9723 6.48063 11.5562 6.50441C11.1388 6.52818 9.8971 5.81487 8.56162 5.62598C7.70697 5.46086 6.8008 5.79902 6.15221 6.05925C5.50495 6.31815 4.27383 7.05524 3.41257 9.0142C2.55131 10.9718 3.00176 14.0734 3.32407 15.0377C3.64638 16.0007 4.14966 17.5792 5.00563 18.7311C5.7665 20.0309 6.7757 20.9331 7.19708 21.2396C7.61846 21.546 8.80731 21.7494 9.63159 21.3281C10.2947 20.9212 11.4915 20.6874 11.9644 20.7046C12.436 20.7217 13.3659 20.908 14.3183 21.4166C15.0726 21.6768 15.7859 21.5685 16.5005 21.2779C17.2151 20.9859 18.2494 19.879 19.4568 17.6347C19.9151 16.5911 20.1239 16.0271 20.0816 15.9412Z" fill="#101010"/>
<path d="M15.704 0.442584C15.6591 0.392388 14.0409 0.462398 12.6328 1.99073C11.2246 3.51775 11.4413 5.26932 11.473 5.31423C11.5047 5.35914 13.4808 5.42915 14.7423 3.65248C16.0038 1.87581 15.7489 0.494101 15.704 0.442584ZM20.0816 15.9412C20.0182 15.8144 17.0104 14.3112 17.2904 11.421C17.5705 8.52942 19.503 7.73685 19.5334 7.65099C19.5638 7.56512 18.7448 6.60744 17.8769 6.12265C17.2397 5.78086 16.5345 5.58504 15.8123 5.54936C15.6696 5.5454 15.1743 5.42387 14.1558 5.70259C13.4848 5.8862 11.9723 6.48063 11.5562 6.50441C11.1388 6.52818 9.8971 5.81487 8.56162 5.62598C7.70697 5.46086 6.8008 5.79902 6.15221 6.05925C5.50495 6.31815 4.27383 7.05524 3.41257 9.0142C2.55131 10.9718 3.00176 14.0734 3.32407 15.0377C3.64638 16.0007 4.14966 17.5792 5.00563 18.7311C5.7665 20.0309 6.7757 20.9331 7.19708 21.2396C7.61846 21.546 8.80731 21.7494 9.63159 21.3281C10.2947 20.9212 11.4915 20.6874 11.9644 20.7046C12.436 20.7217 13.3659 20.908 14.3183 21.4166C15.0726 21.6768 15.7859 21.5685 16.5005 21.2779C17.2151 20.9859 18.2494 19.879 19.4568 17.6347C19.9151 16.5911 20.1239 16.0271 20.0816 15.9412Z" fill="black" fill-opacity="0.2"/>
<path d="M15.704 0.442584C15.6591 0.392388 14.0409 0.462398 12.6328 1.99073C11.2246 3.51775 11.4413 5.26932 11.473 5.31423C11.5047 5.35914 13.4808 5.42915 14.7423 3.65248C16.0038 1.87581 15.7489 0.494101 15.704 0.442584ZM20.0816 15.9412C20.0182 15.8144 17.0104 14.3112 17.2904 11.421C17.5705 8.52942 19.503 7.73685 19.5334 7.65099C19.5638 7.56512 18.7448 6.60744 17.8769 6.12265C17.2397 5.78086 16.5345 5.58504 15.8123 5.54936C15.6696 5.5454 15.1743 5.42387 14.1558 5.70259C13.4848 5.8862 11.9723 6.48063 11.5562 6.50441C11.1388 6.52818 9.8971 5.81487 8.56162 5.62598C7.70697 5.46086 6.8008 5.79902 6.15221 6.05925C5.50495 6.31815 4.27383 7.05524 3.41257 9.0142C2.55131 10.9718 3.00176 14.0734 3.32407 15.0377C3.64638 16.0007 4.14966 17.5792 5.00563 18.7311C5.7665 20.0309 6.7757 20.9331 7.19708 21.2396C7.61846 21.546 8.80731 21.7494 9.63159 21.3281C10.2947 20.9212 11.4915 20.6874 11.9644 20.7046C12.436 20.7217 13.3659 20.908 14.3183 21.4166C15.0726 21.6768 15.7859 21.5685 16.5005 21.2779C17.2151 20.9859 18.2494 19.879 19.4568 17.6347C19.9151 16.5911 20.1239 16.0271 20.0816 15.9412Z" fill="#101010"/>
<path d="M15.704 0.442584C15.6591 0.392388 14.0409 0.462398 12.6328 1.99073C11.2246 3.51775 11.4413 5.26932 11.473 5.31423C11.5047 5.35914 13.4808 5.42915 14.7423 3.65248C16.0038 1.87581 15.7489 0.494101 15.704 0.442584ZM20.0816 15.9412C20.0182 15.8144 17.0104 14.3112 17.2904 11.421C17.5705 8.52942 19.503 7.73685 19.5334 7.65099C19.5638 7.56512 18.7448 6.60744 17.8769 6.12265C17.2397 5.78086 16.5345 5.58504 15.8123 5.54936C15.6696 5.5454 15.1743 5.42387 14.1558 5.70259C13.4848 5.8862 11.9723 6.48063 11.5562 6.50441C11.1388 6.52818 9.8971 5.81487 8.56162 5.62598C7.70697 5.46086 6.8008 5.79902 6.15221 6.05925C5.50495 6.31815 4.27383 7.05524 3.41257 9.0142C2.55131 10.9718 3.00176 14.0734 3.32407 15.0377C3.64638 16.0007 4.14966 17.5792 5.00563 18.7311C5.7665 20.0309 6.7757 20.9331 7.19708 21.2396C7.61846 21.546 8.80731 21.7494 9.63159 21.3281C10.2947 20.9212 11.4915 20.6874 11.9644 20.7046C12.436 20.7217 13.3659 20.908 14.3183 21.4166C15.0726 21.6768 15.7859 21.5685 16.5005 21.2779C17.2151 20.9859 18.2494 19.879 19.4568 17.6347C19.9151 16.5911 20.1239 16.0271 20.0816 15.9412Z" fill="black" fill-opacity="0.2"/>
</g>
<defs>
<clipPath id="clip0_13_1811">
<rect width="21.1351" height="21.1351" fill="white" transform="translate(0.932434 0.432373)"/>
</clipPath>
</defs>
</svg>
