<svg width="23" height="22" viewBox="0 0 23 22" fill="none" xmlns="http://www.w3.org/2000/svg">
<g clip-path="url(#clip0_13_1817)">
<path d="M11.5 0.432373C5.66353 0.432373 0.932434 5.16347 0.932434 10.9999C0.932434 16.8364 5.66353 21.5675 11.5 21.5675C17.3365 21.5675 22.0676 16.8364 22.0676 10.9999C22.0676 5.16347 17.3365 0.432373 11.5 0.432373Z" fill="url(#paint0_linear_13_1817)"/>
<path d="M13.021 15.2777H15.8889L16.3393 12.3645H13.021V10.7721C13.021 9.56201 13.4166 8.48878 14.5486 8.48878H16.3676V5.94673C16.0479 5.90352 15.3719 5.80933 14.0948 5.80933C11.4275 5.80933 9.86395 7.21776 9.86395 10.4269V12.365H7.12189V15.2783H9.8634V23.2856C10.4064 23.3665 10.9566 23.4219 11.5212 23.4219C12.0315 23.4219 12.5296 23.3754 13.021 23.3089V15.2777Z" fill="white"/>
</g>
<defs>
<linearGradient id="paint0_linear_13_1817" x1="4.09901" y1="3.59894" x2="20.279" y2="19.7789" gradientUnits="userSpaceOnUse">
<stop stop-color="#2AA4F4"/>
<stop offset="1" stop-color="#007AD9"/>
</linearGradient>
<clipPath id="clip0_13_1817">
<rect width="21.1351" height="21.1351" fill="white" transform="translate(0.932434 0.432373)"/>
</clipPath>
</defs>
</svg>
