<svg width="21" height="22" viewBox="0 0 21 22" fill="none" xmlns="http://www.w3.org/2000/svg">
<g clip-path="url(#clip0_13_1803)">
<path d="M20.6329 11.1977C20.6329 10.3318 20.5639 9.69995 20.4145 9.04468H10.7008V12.9529H16.4025C16.2876 13.9242 15.6669 15.3868 14.2874 16.3697L14.2681 16.5005L17.3393 18.9224L17.5521 18.9441C19.5063 17.1069 20.6329 14.4039 20.6329 11.1977Z" fill="#4285F4"/>
<path d="M10.701 21.4944C13.4944 21.4944 15.8394 20.5583 17.5523 18.9435L14.2876 16.3692C13.4139 16.9893 12.2414 17.4223 10.701 17.4223C7.96511 17.4223 5.64304 15.5852 4.81529 13.046L4.69396 13.0565L1.5004 15.5723L1.45863 15.6905C3.15994 19.1307 6.65457 21.4944 10.701 21.4944Z" fill="#34A853"/>
<path d="M4.81727 13.0463C4.59887 12.391 4.47246 11.6889 4.47246 10.9635C4.47246 10.2379 4.59887 9.53586 4.80578 8.88059L4.8 8.74104L1.56642 6.18481L1.46062 6.23604C0.759431 7.66363 0.357086 9.26675 0.357086 10.9635C0.357086 12.6602 0.759431 14.2632 1.46062 15.6908L4.81727 13.0463Z" fill="#FBBC05"/>
<path d="M10.701 4.50419C12.6437 4.50419 13.9542 5.35839 14.7014 6.07222L17.6212 3.17026C15.828 1.47356 13.4944 0.432129 10.701 0.432129C6.65457 0.432129 3.15994 2.79579 1.45863 6.23598L4.8038 8.88054C5.64304 6.34133 7.9651 4.50419 10.701 4.50419Z" fill="#EB4335"/>
</g>
<defs>
<clipPath id="clip0_13_1803">
<rect width="20.2897" height="21.1351" fill="white" transform="translate(0.355133 0.432373)"/>
</clipPath>
</defs>
</svg>
