<svg width="12" height="11" viewBox="0 0 12 11" fill="none" xmlns="http://www.w3.org/2000/svg">
<g clip-path="url(#clip0_14_1554)">
<path d="M6.04813 5.80494C5.8956 5.80554 5.74748 5.85621 5.62655 5.94918C5.50562 6.04215 5.41857 6.17226 5.37879 6.31951C5.339 6.46676 5.34868 6.62301 5.40634 6.76423C5.464 6.90544 5.56644 7.02381 5.69792 7.10114V8.09411H6.40688V7.10114C6.5109 7.03961 6.59723 6.95221 6.65748 6.84744C6.71772 6.74266 6.74983 6.62408 6.75068 6.50323C6.75068 6.41117 6.73248 6.32001 6.69712 6.23502C6.66176 6.15002 6.60995 6.07285 6.54465 6.00795C6.47936 5.94305 6.40187 5.89171 6.31666 5.85687C6.23145 5.82203 6.14019 5.80438 6.04813 5.80494Z" stroke="white" stroke-width="0.394231" stroke-linecap="round" stroke-linejoin="round"/>
<path d="M8.67232 4.20142H3.42133C2.91185 4.20142 2.49883 4.61443 2.49883 5.12392V8.77334C2.49883 9.28283 2.91185 9.69584 3.42133 9.69584H8.67232C9.1818 9.69584 9.59482 9.28283 9.59482 8.77334V5.12392C9.59482 4.61443 9.1818 4.20142 8.67232 4.20142Z" stroke="white" stroke-linecap="round" stroke-linejoin="round"/>
<path d="M3.77392 4.20137V3.64403C3.77392 3.0403 4.01375 2.4613 4.44065 2.0344C4.86755 1.60751 5.44655 1.36768 6.05027 1.36768C6.654 1.36768 7.233 1.60751 7.6599 2.0344C8.0868 2.4613 8.32663 3.0403 8.32663 3.64403V4.20137" stroke="white" stroke-linecap="round" stroke-linejoin="round"/>
</g>
<defs>
<clipPath id="clip0_14_1554">
<rect width="10.25" height="10.25" fill="white" transform="translate(0.922836 0.406738)"/>
</clipPath>
</defs>
</svg>
