<svg width="14" height="14" viewBox="0 0 14 14" fill="none" xmlns="http://www.w3.org/2000/svg">
<path d="M7 9.08534C6.92222 9.08534 6.84931 9.07328 6.78125 9.04917C6.7132 9.02506 6.65 8.98364 6.59167 8.92492L4.49167 6.82492C4.375 6.70825 4.319 6.57214 4.32367 6.41659C4.32834 6.26103 4.38434 6.12492 4.49167 6.00825C4.60834 5.89159 4.74697 5.83092 4.90759 5.82625C5.0682 5.82159 5.20664 5.87739 5.32292 5.99367L6.41667 7.08742V2.91659C6.41667 2.75131 6.47267 2.61287 6.58467 2.50125C6.69667 2.38964 6.83511 2.33364 7 2.33325C7.16489 2.33287 7.30353 2.38887 7.41592 2.50125C7.52831 2.61364 7.58411 2.75209 7.58334 2.91659V7.08742L8.67709 5.99367C8.79375 5.877 8.93239 5.821 9.093 5.82567C9.25361 5.83034 9.39206 5.8912 9.50834 6.00825C9.61528 6.12492 9.67128 6.26103 9.67634 6.41659C9.68139 6.57214 9.62539 6.70825 9.50834 6.82492L7.40834 8.92492C7.35 8.98325 7.28681 9.02467 7.21875 9.04917C7.1507 9.07367 7.07778 9.08573 7 9.08534ZM3.5 11.6666C3.17917 11.6666 2.90461 11.5524 2.67634 11.3242C2.44806 11.0959 2.33372 10.8211 2.33334 10.4999V9.33325C2.33334 9.16798 2.38934 9.02953 2.50134 8.91792C2.61334 8.80631 2.75178 8.75031 2.91667 8.74992C3.08156 8.74953 3.2202 8.80553 3.33259 8.91792C3.44497 9.03031 3.50078 9.16875 3.5 9.33325V10.4999H10.5V9.33325C10.5 9.16798 10.556 9.02953 10.668 8.91792C10.78 8.80631 10.9184 8.75031 11.0833 8.74992C11.2482 8.74953 11.3869 8.80553 11.4993 8.91792C11.6116 9.03031 11.6674 9.16875 11.6667 9.33325V10.4999C11.6667 10.8208 11.5525 11.0955 11.3243 11.3242C11.096 11.5528 10.8212 11.667 10.5 11.6666H3.5Z" fill="white"/>
</svg>
