<svg width="13" height="14" viewBox="0 0 13 14" fill="none" xmlns="http://www.w3.org/2000/svg">
<path d="M4.1681 6.72926L4.16819 6.72918L8.09878 2.79858C6.63264 2.69732 5.15995 2.72776 3.69843 2.88975C2.87945 2.98124 2.22175 3.6264 2.12621 4.44285L4.1681 6.72926ZM4.1681 6.72926C4.0693 6.82813 3.99855 6.95148 3.9631 7.0867L3.96301 7.08706L3.43737 9.10027L3.43734 9.10037C3.40263 9.23343 3.40333 9.37326 3.43937 9.50596C3.4754 9.63867 3.54552 9.75964 3.64275 9.85688C3.73999 9.95412 3.86096 10.0242 3.99367 10.0603C4.12638 10.0963 4.2662 10.097 4.39926 10.0623L4.39939 10.0623L6.41207 9.53662L6.41312 9.53634C6.54827 9.50065 6.6715 9.42966 6.77018 9.33067M4.1681 6.72926L6.77018 9.33067M6.77018 9.33067C6.77031 9.33054 6.77043 9.33042 6.77056 9.33029L10.7687 5.33214C10.8891 6.86309 10.8601 8.40262 10.6816 9.92888C10.5861 10.7447 9.92848 11.39 9.10993 11.482C7.31166 11.6812 5.49688 11.6812 3.69861 11.482C2.8794 11.3901 2.22174 10.7447 2.12621 9.92889L6.77018 9.33067ZM2.1262 9.92882C1.91319 8.10638 1.91319 6.26533 2.1262 4.44289L2.1262 9.92882Z" stroke="white" stroke-width="0.788462"/>
<path d="M4.90119 8.69119C4.92331 8.69719 4.94661 8.69731 4.96879 8.69152L5.97487 8.4287L5.18994 8.63069L5.1899 8.63085L4.93564 8.56443L4.96878 8.6915L4.9356 8.56447L4.90119 8.69119ZM4.90119 8.69119C4.87907 8.68518 4.85891 8.6735 4.8427 8.65729C4.8265 8.64108 4.81481 8.62092 4.80881 8.5988C4.8028 8.57669 4.80268 8.55338 4.80847 8.5312L4.93552 8.5644L4.93558 8.56441L4.9356 8.56447L4.90119 8.69119ZM9.74339 3.38374L9.74332 3.38381L9.74339 3.38374ZM9.74339 3.38374C9.7435 3.38364 9.7436 3.38353 9.74371 3.38343L9.74339 3.38374ZM5.4348 7.69338L9.55759 3.56959L9.92927 3.94153L5.80658 8.0652L5.30332 8.19667L5.4348 7.69338ZM5.87633 8.04698L5.87522 8.04727L5.87633 8.04698Z" fill="#0099B9" stroke="white" stroke-width="0.788462"/>
</svg>
