<svg width="13" height="13" viewBox="0 0 13 13" fill="none" xmlns="http://www.w3.org/2000/svg">
<path d="M9.20156 8.49947V8.66277L9.31702 8.77824L9.9951 9.45632C10.0766 9.53783 10.0191 9.68217 9.90066 9.68217H2.97797C2.86795 9.68217 2.80131 9.54378 2.88878 9.45632L3.56686 8.77824L3.68233 8.66277V8.49947V5.87127C3.68233 4.38978 4.45411 3.23853 5.74437 2.93283L6.04771 2.86096V2.54922V2.19178C6.04771 1.97323 6.22339 1.79755 6.44194 1.79755C6.6605 1.79755 6.83617 1.97323 6.83617 2.19178V2.54922V2.86071L7.13921 2.93276C8.42475 3.23841 9.20156 4.39539 9.20156 5.87127V8.49947ZM6.96614 10.9963C6.84577 11.1555 6.65502 11.2591 6.44194 11.2591C6.26768 11.2591 6.10056 11.1899 5.97734 11.0666L5.69857 11.3454L5.97734 11.0666C5.95522 11.0445 5.93485 11.021 5.9163 10.9963H6.96614Z" stroke="white" stroke-width="0.788462"/>
</svg>
