<svg width="12" height="12" viewBox="0 0 12 12" fill="none" xmlns="http://www.w3.org/2000/svg">
<path d="M5.30344 1.54776C5.41284 1.42849 5.54678 1.33309 5.69651 1.26778C5.84624 1.20246 6.00839 1.1687 6.1724 1.1687C6.3364 1.1687 6.49856 1.20246 6.64829 1.26778C6.79802 1.33309 6.93195 1.42849 7.04135 1.54776L7.44958 1.99292C7.56626 2.12015 7.71076 2.22013 7.87238 2.28547C8.034 2.3508 8.20861 2.37981 8.38328 2.37035L8.99563 2.33733C9.15941 2.32852 9.32326 2.35352 9.47647 2.41072C9.62969 2.46792 9.76882 2.55601 9.88478 2.66926C10.0007 2.78251 10.0909 2.91836 10.1495 3.06794C10.208 3.21752 10.2335 3.37747 10.2244 3.53734L10.1906 4.1345C10.181 4.3049 10.2107 4.47522 10.2777 4.63288C10.3446 4.79054 10.447 4.93149 10.5772 5.04532L11.0333 5.44381C11.1556 5.5506 11.2534 5.68137 11.3204 5.82757C11.3873 5.97378 11.422 6.13214 11.422 6.2923C11.422 6.45245 11.3873 6.61081 11.3204 6.75702C11.2534 6.90322 11.1556 7.03399 11.0333 7.14078L10.5772 7.53927C10.4469 7.65316 10.3445 7.7942 10.2775 7.95197C10.2106 8.10973 10.1809 8.28017 10.1906 8.45066L10.2244 9.04839C10.2334 9.20827 10.2078 9.3682 10.1492 9.51775C10.0906 9.66731 10.0004 9.80312 9.88436 9.91631C9.76834 10.0295 9.62917 10.1175 9.47593 10.1747C9.32269 10.2318 9.15883 10.2567 8.99504 10.2478L8.38328 10.2148C8.20871 10.2054 8.03421 10.2345 7.8727 10.2998C7.71118 10.3651 7.56678 10.4651 7.45017 10.5922L7.04193 11.0374C6.93253 11.1568 6.79856 11.2522 6.64878 11.3176C6.49899 11.383 6.33676 11.4168 6.17269 11.4168C6.00861 11.4168 5.84638 11.383 5.6966 11.3176C5.54681 11.2522 5.41284 11.1568 5.30344 11.0374L4.89521 10.5922C4.77853 10.465 4.63403 10.365 4.47241 10.2997C4.31079 10.2344 4.13618 10.2054 3.96152 10.2148L3.34916 10.2478C3.18538 10.2566 3.02153 10.2316 2.86832 10.1744C2.7151 10.1172 2.57597 10.0291 2.46001 9.9159C2.34405 9.80265 2.25386 9.6668 2.19534 9.51722C2.13681 9.36764 2.11127 9.20769 2.12038 9.04782L2.1542 8.45066C2.16381 8.28026 2.13405 8.10994 2.06712 7.95228C2.00019 7.79462 1.89781 7.65367 1.76755 7.53984L1.31149 7.14135C1.18922 7.03456 1.0914 6.90379 1.02442 6.75758C0.957453 6.61138 0.922836 6.45302 0.922836 6.29286C0.922836 6.13271 0.957453 5.97435 1.02442 5.82814C1.0914 5.68194 1.18922 5.55117 1.31149 5.44438L1.76755 5.04589C1.89789 4.932 2.00032 4.79095 2.06725 4.63319C2.13418 4.47543 2.1639 4.30499 2.1542 4.1345L2.12038 3.53677C2.11144 3.37694 2.13712 3.21707 2.19575 3.06758C2.25439 2.9181 2.34465 2.78236 2.46066 2.66923C2.57667 2.5561 2.71581 2.46812 2.86901 2.41102C3.02221 2.35393 3.18602 2.32902 3.34975 2.3379L3.96152 2.37091C4.13608 2.38029 4.31058 2.35124 4.47209 2.28591C4.63361 2.22058 4.77801 2.12064 4.89462 1.99349L5.30344 1.54776Z" stroke="white" stroke-width="0.788462"/>
<path d="M4.71484 4.86938H4.72067V4.87508H4.71484V4.86938ZM7.63079 7.71571H7.63663V7.7214H7.63079V7.71571Z" stroke="#F4F4F4" stroke-width="0.788462" stroke-linejoin="round"/>
<path d="M7.92255 4.58472L4.4234 8.00031" stroke="white" stroke-width="0.788462" stroke-linecap="round" stroke-linejoin="round"/>
</svg>
