<svg width="14" height="14" viewBox="0 0 14 14" fill="none" xmlns="http://www.w3.org/2000/svg">
<g clip-path="url(#clip0_46_4292)">
<path d="M3.82579 1.45825H4.08421C5.44513 1.6595 5.81409 2.43184 7 2.43184C8.18592 2.43184 8.55488 1.6595 9.91609 1.45825H10.0625C10.4264 1.45825 10.7867 1.52992 11.1229 1.66917C11.459 1.80842 11.7645 2.01251 12.0218 2.26981C12.2791 2.52711 12.4832 2.83256 12.6224 3.16873C12.7617 3.50491 12.8333 3.86521 12.8333 4.22909V4.41167C12.8333 5.25838 11.9321 6.22496 11.6667 7.14079C11.3852 8.11321 11.1924 8.90829 11.1358 9.73984C11.0031 11.6885 10.3387 12.5416 9.625 12.5416C8.55925 12.5416 7.61309 8.17388 7.01838 8.17388C6.42338 8.17388 5.24359 12.5416 4.375 12.5416C3.84504 12.5416 3.15875 12.228 2.90092 9.73984C2.79825 8.74992 2.625 8.14938 2.33334 7.14079C2.07667 6.25413 1.211 5.19479 1.16667 4.24396C1.14995 3.88436 1.20633 3.5251 1.33242 3.18791C1.45851 2.85072 1.65168 2.54261 1.90025 2.2822C2.14882 2.0218 2.44762 1.81452 2.77858 1.6729C3.10955 1.53128 3.4658 1.45826 3.82579 1.45825Z" stroke="white"/>
<path d="M4.51559 3.63501L9.33363 5.18843M4.51559 5.18843L9.33363 3.63501" stroke="white" stroke-linecap="round"/>
</g>
<defs>
<clipPath id="clip0_46_4292">
<rect width="14" height="14" fill="white"/>
</clipPath>
</defs>
</svg>
