<svg width="25" height="24" viewBox="0 0 25 24" fill="none" xmlns="http://www.w3.org/2000/svg">
<path d="M14.4931 3.19943L14.4934 3.19962L20.2533 7.22955C20.2533 7.22957 20.2533 7.2296 20.2534 7.22962C20.7226 7.55809 21.1668 8.09665 21.4943 8.72383C21.8217 9.35104 22.01 10.0242 22.01 10.5999V17.3799C22.01 19.6538 20.1639 21.4999 17.89 21.4999H7.11C4.83755 21.4999 2.99 19.6452 2.99 17.3699V10.4699C2.99 9.9355 3.16038 9.29642 3.45857 8.6908C3.75663 8.08545 4.16107 7.55682 4.58751 7.22419L4.58762 7.2241L9.59624 3.31518C9.59646 3.31501 9.59668 3.31484 9.5969 3.31467C10.9337 2.27937 13.1028 2.22535 14.4931 3.19943ZM12.5 19.2499C13.1861 19.2499 13.75 18.6861 13.75 17.9999V14.9999C13.75 14.3138 13.1861 13.7499 12.5 13.7499C11.8139 13.7499 11.25 14.3138 11.25 14.9999V17.9999C11.25 18.6861 11.8139 19.2499 12.5 19.2499Z" stroke="#AFAFAF"/>
</svg>
