<svg width="25" height="24" viewBox="0 0 25 24" fill="none" xmlns="http://www.w3.org/2000/svg">
<path d="M12.5 2C9.7385 2 7.5 4.2385 7.5 7C7.5 9.7615 9.7385 12 12.5 12C15.2615 12 17.5 9.7615 17.5 7C17.5 4.2385 15.2615 2 12.5 2ZM6.625 14C6.0615 14 5.52108 14.2238 5.12257 14.6222C4.72407 15.0206 4.50013 15.561 4.5 16.1245V16.5C4.5 18.3775 5.471 19.7835 6.96 20.69C8.425 21.5815 10.393 22 12.5 22C14.607 22 16.575 21.5815 18.04 20.69C19.529 19.7835 20.5 18.3775 20.5 16.5V16.1245C20.4999 15.561 20.2759 15.0206 19.8774 14.6222C19.4789 14.2238 18.9385 14 18.375 14H6.625Z" fill="#0099B9"/>
</svg>
