<svg width="25" height="24" viewBox="0 0 25 24" fill="none" xmlns="http://www.w3.org/2000/svg">
<path d="M17.75 6.75C17.75 8.14239 17.1969 9.47774 16.2123 10.4623C15.2277 11.4469 13.8924 12 12.5 12C11.1076 12 9.77226 11.4469 8.78769 10.4623C7.80312 9.47774 7.25 8.14239 7.25 6.75C7.25 5.35761 7.80312 4.02226 8.78769 3.03769C9.77226 2.05312 11.1076 1.5 12.5 1.5C13.8924 1.5 15.2277 2.05312 16.2123 3.03769C17.1969 4.02226 17.75 5.35761 17.75 6.75ZM16.25 6.75C16.25 5.75544 15.8549 4.80161 15.1517 4.09835C14.4484 3.39509 13.4946 3 12.5 3C11.5054 3 10.5516 3.39509 9.84835 4.09835C9.14509 4.80161 8.75 5.75544 8.75 6.75C8.75 7.74456 9.14509 8.69839 9.84835 9.40165C10.5516 10.1049 11.5054 10.5 12.5 10.5C13.4946 10.5 14.4484 10.1049 15.1517 9.40165C15.8549 8.69839 16.25 7.74456 16.25 6.75ZM6.125 13.5C5.42881 13.5 4.76113 13.7766 4.26884 14.2688C3.77656 14.7611 3.5 15.4288 3.5 16.125V16.5C3.5 18.2948 4.64225 19.8127 6.26375 20.8447C7.89425 21.8827 10.1015 22.5 12.5 22.5C14.8985 22.5 17.105 21.8827 18.7362 20.8447C20.3577 19.8127 21.5 18.2948 21.5 16.5V16.125C21.5 15.4288 21.2234 14.7611 20.7312 14.2688C20.2389 13.7766 19.5712 13.5 18.875 13.5H6.125ZM5 16.125C5 15.8266 5.11853 15.5405 5.3295 15.3295C5.54048 15.1185 5.82663 15 6.125 15H18.875C19.1734 15 19.4595 15.1185 19.6705 15.3295C19.8815 15.5405 20 15.8266 20 16.125V16.5C20 17.6047 19.295 18.7118 17.9307 19.5795C16.5755 20.442 14.6578 21 12.5 21C10.3422 21 8.4245 20.442 7.06925 19.5795C5.70425 18.7125 5 17.604 5 16.5V16.125Z" fill="#AFAFAF"/>
</svg>
