<svg width="25" height="25" viewBox="0 0 25 25" fill="none" xmlns="http://www.w3.org/2000/svg">
<path d="M5.9 10.3077H19.1V7.40773C19.1 7.33073 19.0679 7.26023 19.0038 7.19623C18.9398 7.13206 18.8693 7.09998 18.7923 7.09998H6.20775C6.13075 7.09998 6.06025 7.13206 5.99625 7.19623C5.93208 7.26023 5.9 7.33073 5.9 7.40773V10.3077ZM6.20775 21.6C5.75758 21.6 5.37708 21.4446 5.06625 21.1337C4.75542 20.8229 4.6 20.4424 4.6 19.9922V7.40773C4.6 6.96923 4.75833 6.59165 5.075 6.27498C5.39167 5.95831 5.76925 5.79998 6.20775 5.79998H8.39225V3.95373C8.39225 3.7629 8.45558 3.60364 8.58225 3.47598C8.70892 3.34848 8.86692 3.28473 9.05625 3.28473C9.24575 3.28473 9.4055 3.34848 9.5355 3.47598C9.66567 3.60364 9.73075 3.7629 9.73075 3.95373V5.79998H15.3078V3.93473C15.3078 3.75023 15.3694 3.59573 15.4928 3.47123C15.6163 3.34689 15.7695 3.28473 15.9525 3.28473C16.1355 3.28473 16.2904 3.34689 16.4173 3.47123C16.5443 3.59573 16.6078 3.75023 16.6078 3.93473V5.79998H18.7923C19.2308 5.79998 19.6083 5.95831 19.925 6.27498C20.2417 6.59165 20.4 6.96923 20.4 7.40773V11.7962C20.4 11.9807 20.3383 12.1351 20.2148 12.2595C20.0914 12.384 19.9383 12.4462 19.7553 12.4462C19.5723 12.4462 19.4173 12.384 19.2905 12.2595C19.1635 12.1351 19.1 11.9807 19.1 11.7962V11.6077H5.9V19.9922C5.9 20.0692 5.93208 20.1397 5.99625 20.2037C6.06025 20.2679 6.13075 20.3 6.20775 20.3H12.3C12.4845 20.3 12.639 20.3616 12.7635 20.485C12.8878 20.6085 12.95 20.7617 12.95 20.9447C12.95 21.1277 12.8878 21.2826 12.7635 21.4095C12.639 21.5365 12.4845 21.6 12.3 21.6H6.20775ZM18.6867 22.8C17.4917 22.8 16.4773 22.3811 15.6433 21.5432C14.8092 20.7056 14.3923 19.6892 14.3923 18.4942C14.3923 17.2994 14.8112 16.285 15.649 15.451C16.4867 14.617 17.503 14.2 18.698 14.2C19.893 14.2 20.9074 14.6189 21.7413 15.4567C22.5753 16.2944 22.9923 17.3107 22.9923 18.5057C22.9923 19.7006 22.5734 20.715 21.7358 21.549C20.8979 22.383 19.8816 22.8 18.6867 22.8ZM19.2348 18.2692V16.7C19.2348 16.5528 19.1811 16.4256 19.0738 16.3185C18.9666 16.2113 18.8394 16.1577 18.6923 16.1577C18.5451 16.1577 18.4179 16.2113 18.3108 16.3185C18.2036 16.4256 18.15 16.5528 18.15 16.7V18.4037C18.15 18.5242 18.1718 18.6306 18.2155 18.723C18.259 18.8153 18.3193 18.9001 18.3965 18.9772L19.6713 20.252C19.7811 20.3558 19.9098 20.4093 20.0575 20.4125C20.205 20.4156 20.3339 20.3621 20.4443 20.252C20.5546 20.1416 20.6098 20.0143 20.6098 19.87C20.6098 19.7255 20.5546 19.5951 20.4443 19.4787L19.2348 18.2692Z" fill="white"/>
</svg>
