<svg width="16" height="16" viewBox="0 0 16 16" fill="none" xmlns="http://www.w3.org/2000/svg">
<path d="M14.7767 2.99168C14.8961 2.87643 14.9914 2.73854 15.057 2.58607C15.1226 2.4336 15.1571 2.26959 15.1586 2.10361C15.1602 1.93764 15.1286 1.77303 15.0658 1.61938C15.003 1.46573 14.9103 1.32612 14.793 1.2087C14.6757 1.09128 14.5362 0.998398 14.3826 0.935474C14.229 0.872551 14.0644 0.840846 13.8984 0.842209C13.7324 0.843573 13.5684 0.877977 13.4159 0.943416C13.2633 1.00885 13.1254 1.10402 13.01 1.22335L8 6.23168L2.99166 1.22335C2.87723 1.10054 2.73923 1.00203 2.58589 0.933713C2.43256 0.865393 2.26704 0.828656 2.0992 0.825695C1.93136 0.822734 1.76465 0.853609 1.609 0.916477C1.45335 0.979345 1.31196 1.07292 1.19327 1.19162C1.07457 1.31032 0.980993 1.4517 0.918125 1.60735C0.855256 1.763 0.824382 1.92971 0.827343 2.09755C0.830304 2.26539 0.867041 2.43091 0.935361 2.58424C1.00368 2.73758 1.10218 2.87558 1.225 2.99002L6.23 8.00001L1.22166 13.0083C1.00086 13.2453 0.880657 13.5587 0.886371 13.8826C0.892084 14.2064 1.02327 14.5154 1.25229 14.7444C1.48131 14.9734 1.79029 15.1046 2.11412 15.1103C2.43796 15.116 2.75137 14.9958 2.98833 14.775L8 9.76668L13.0083 14.7767C13.2453 14.9975 13.5587 15.1177 13.8825 15.112C14.2064 15.1063 14.5153 14.9751 14.7444 14.7461C14.9734 14.517 15.1046 14.2081 15.1103 13.8842C15.116 13.5604 14.9958 13.247 14.775 13.01L9.77 8.00001L14.7767 2.99168Z" fill="#8C8C8C"/>
</svg>
