<svg width="26" height="26" viewBox="0 0 26 26" fill="none" xmlns="http://www.w3.org/2000/svg">
<path d="M12.9999 14.0062L8.37083 18.6355C8.22079 18.7854 8.05928 18.8576 7.88631 18.8522C7.71351 18.8466 7.54858 18.7653 7.39149 18.6084C7.23459 18.4513 7.15614 18.2836 7.15614 18.1052C7.15614 17.9268 7.23459 17.7591 7.39149 17.602L11.9938 13L7.36441 8.37092C7.21455 8.22088 7.14233 8.05486 7.14774 7.87286C7.15334 7.69104 7.23459 7.52159 7.39149 7.3645C7.54858 7.2076 7.71631 7.12915 7.8947 7.12915C8.07309 7.12915 8.24083 7.2076 8.39791 7.3645L12.9999 11.9939L17.629 7.3645C17.779 7.21464 17.9451 7.13791 18.1271 7.1343C18.3089 7.13087 18.4783 7.2076 18.6354 7.3645C18.7923 7.52159 18.8708 7.68932 18.8708 7.86771C18.8708 8.0461 18.7923 8.21384 18.6354 8.37092L14.0061 13L18.6354 17.6291C18.7853 17.7791 18.862 17.9406 18.8656 18.1136C18.8691 18.2864 18.7923 18.4513 18.6354 18.6084C18.4783 18.7653 18.3106 18.8438 18.1322 18.8438C17.9538 18.8438 17.7861 18.7653 17.629 18.6084L12.9999 14.0062Z" fill="white"/>
</svg>
