<svg width="26" height="22" viewBox="0 0 26 22" fill="none" xmlns="http://www.w3.org/2000/svg">
<path d="M0.929688 3.52385C0.929688 0.884273 3.93383 -0.748053 6.29499 0.610803L18.7934 7.80255C21.0872 9.12234 21.0872 12.3089 18.7934 13.6287L6.29676 20.8204C3.9356 22.1793 0.931459 20.5486 0.931459 17.9074V3.52385H0.929688Z" fill="#050505"/>
<path d="M16.9702 10.7126L4.4718 3.52087V17.9044L16.9702 10.7126Z" fill="black"/>
<path d="M23.9573 0.525146C24.4271 0.525146 24.8777 0.704103 25.2099 1.02265C25.542 1.34119 25.7287 1.77323 25.7287 2.22372V19.2094C25.7287 19.6599 25.542 20.092 25.2099 20.4105C24.8777 20.729 24.4271 20.908 23.9573 20.908C23.4876 20.908 23.037 20.729 22.7048 20.4105C22.3727 20.092 22.186 19.6599 22.186 19.2094V2.22372C22.186 1.77323 22.3727 1.34119 22.7048 1.02265C23.037 0.704103 23.4876 0.525146 23.9573 0.525146Z" fill="#050505"/>
</svg>
