<svg width="15" height="14" viewBox="0 0 15 14" fill="none" xmlns="http://www.w3.org/2000/svg">
<path d="M7.99995 6.62499V13M7.99995 13L10.25 10.75M7.99995 13L5.74995 10.75M4.99995 3.27699C5.56091 3.35808 6.08056 3.61856 6.4812 4.01949M12.125 8.49999C13.2642 8.49999 14 7.57674 14 6.43749C13.9999 5.98645 13.852 5.54786 13.5789 5.18889C13.3059 4.82993 12.9226 4.57037 12.4879 4.44999C12.4211 3.60883 12.0725 2.81481 11.4985 2.19631C10.9245 1.5778 10.1587 1.17096 9.32483 1.04156C8.491 0.912154 7.63789 1.06776 6.90344 1.4832C6.16899 1.89865 5.59612 2.54966 5.27745 3.33099C4.60652 3.145 3.88919 3.23316 3.28326 3.57607C2.67733 3.91898 2.23243 4.48855 2.04645 5.15949C1.86047 5.83042 1.94863 6.54775 2.29154 7.15368C2.63445 7.75961 3.20402 8.2045 3.87495 8.39049" stroke="white" stroke-width="2" stroke-linecap="round" stroke-linejoin="round"/>
</svg>
