<svg width="20" height="20" viewBox="0 0 20 20" fill="none" xmlns="http://www.w3.org/2000/svg">
<path d="M16.825 11.7166L15.8833 10.15C15.675 9.80831 15.4917 9.14998 15.4917 8.74998V7.19165C15.4917 4.16665 13.0333 1.70831 10.0167 1.70831C6.99166 1.71665 4.53333 4.16665 4.53333 7.19165V8.74165C4.53333 9.14165 4.35 9.79998 4.15 10.1416L3.20833 11.7083C2.85 12.3166 2.76666 13.0083 2.99166 13.6083C3.21666 14.2166 3.725 14.7 4.39166 14.9166C5.29166 15.2166 6.2 15.4333 7.125 15.5916C7.21666 15.6083 7.30833 15.6166 7.4 15.6333C7.51666 15.65 7.64166 15.6666 7.76666 15.6833C7.98333 15.7166 8.2 15.7416 8.425 15.7583C8.95 15.8083 9.48333 15.8333 10.0167 15.8333C10.5417 15.8333 11.0667 15.8083 11.5833 15.7583C11.775 15.7416 11.9667 15.725 12.15 15.7C12.3 15.6833 12.45 15.6666 12.6 15.6416C12.6917 15.6333 12.7833 15.6166 12.875 15.6C13.8083 15.45 14.7333 15.2166 15.6333 14.9166C16.275 14.7 16.7667 14.2166 17 13.6C17.2333 12.975 17.1667 12.2916 16.825 11.7166ZM10.625 8.33331C10.625 8.68331 10.3417 8.96665 9.99166 8.96665C9.64166 8.96665 9.35833 8.68331 9.35833 8.33331V5.74998C9.35833 5.39998 9.64166 5.11665 9.99166 5.11665C10.3417 5.11665 10.625 5.39998 10.625 5.74998V8.33331Z" fill="white"/>
<path d="M12.3583 16.675C12.0083 17.6417 11.0833 18.3334 9.99999 18.3334C9.34166 18.3334 8.69166 18.0667 8.23333 17.5917C7.96666 17.3417 7.76666 17.0084 7.64999 16.6667C7.75833 16.6834 7.86666 16.6917 7.98333 16.7084C8.17499 16.7334 8.37499 16.7584 8.57499 16.775C9.04999 16.8167 9.53333 16.8417 10.0167 16.8417C10.4917 16.8417 10.9667 16.8167 11.4333 16.775C11.6083 16.7584 11.7833 16.75 11.95 16.725C12.0833 16.7084 12.2167 16.6917 12.3583 16.675Z" fill="white"/>
</svg>
