<svg width="14" height="18" viewBox="0 0 14 18" fill="none" xmlns="http://www.w3.org/2000/svg">
<path fill-rule="evenodd" clip-rule="evenodd" d="M1.16667 0.833374H3.5C4.144 0.833374 4.66667 1.32104 4.66667 1.92187V16.0782C4.66667 16.679 4.144 17.1667 3.5 17.1667H1.16667C0.522667 17.1667 0 16.679 0 16.0782V1.92187C0 1.32104 0.522667 0.833374 1.16667 0.833374ZM10.5 0.833374H12.8333C13.4773 0.833374 14 1.32104 14 1.92187V16.0782C14 16.679 13.4773 17.1667 12.8333 17.1667H10.5C9.856 17.1667 9.33333 16.679 9.33333 16.0782V1.92187C9.33333 1.32104 9.856 0.833374 10.5 0.833374Z" fill="white"/>
</svg>
