<svg width="26" height="26" viewBox="0 0 26 26" fill="none" xmlns="http://www.w3.org/2000/svg">
<path d="M21.8725 15.2317L20.6483 13.195C20.3775 12.7508 20.1392 11.895 20.1392 11.375V9.34916C20.1392 5.41666 16.9433 2.22083 13.0217 2.22083C9.08917 2.23166 5.89333 5.41666 5.89333 9.34916V11.3642C5.89333 11.8842 5.655 12.74 5.395 13.1842L4.17083 15.2208C3.705 16.0117 3.59667 16.9108 3.88917 17.6908C4.18167 18.4817 4.8425 19.11 5.70917 19.3917C6.87917 19.7817 8.06 20.0633 9.2625 20.2692C9.38167 20.2908 9.50083 20.3017 9.62 20.3233C9.77167 20.345 9.93417 20.3667 10.0967 20.3883C10.3783 20.4317 10.66 20.4642 10.9525 20.4858C11.635 20.5508 12.3283 20.5833 13.0217 20.5833C13.7042 20.5833 14.3867 20.5508 15.0583 20.4858C15.3075 20.4642 15.5567 20.4425 15.795 20.41C15.99 20.3883 16.185 20.3667 16.38 20.3342C16.4992 20.3233 16.6183 20.3017 16.7375 20.28C17.9508 20.085 19.1533 19.7817 20.3233 19.3917C21.1575 19.11 21.7967 18.4817 22.1 17.68C22.4033 16.8675 22.3167 15.9792 21.8725 15.2317ZM13.8125 10.8333C13.8125 11.2883 13.4442 11.6567 12.9892 11.6567C12.5342 11.6567 12.1658 11.2883 12.1658 10.8333V7.47499C12.1658 7.01999 12.5342 6.65166 12.9892 6.65166C13.4442 6.65166 13.8125 7.01999 13.8125 7.47499V10.8333Z" fill="#0099B9"/>
<path d="M16.0658 21.6775C15.6108 22.9342 14.4083 23.8333 13 23.8333C12.1442 23.8333 11.2992 23.4867 10.7033 22.8692C10.3567 22.5442 10.0967 22.1108 9.94501 21.6667C10.0858 21.6883 10.2267 21.6992 10.3783 21.7208C10.6275 21.7533 10.8875 21.7858 11.1475 21.8075C11.765 21.8617 12.3933 21.8942 13.0217 21.8942C13.6392 21.8942 14.2567 21.8617 14.8633 21.8075C15.0908 21.7858 15.3183 21.775 15.535 21.7425C15.7083 21.7208 15.8817 21.6992 16.0658 21.6775Z" fill="#0099B9"/>
</svg>
