<svg width="25" height="24" viewBox="0 0 25 24" fill="none" xmlns="http://www.w3.org/2000/svg">
<path d="M22.2889 6.86707C22.5304 6.86693 22.7682 6.92423 22.9821 7.03404C23.196 7.14385 23.3796 7.30289 23.517 7.49754L23.5966 7.62637C24.3212 8.78139 24.7265 10.1016 24.7727 11.4569C24.8188 12.8123 24.5042 14.156 23.8598 15.3559C23.2155 16.5558 22.2635 17.5703 21.0977 18.2997C19.932 19.0291 18.5926 19.4481 17.2115 19.5156L16.8154 19.5253L11.9489 19.5234L13.3859 20.9327C13.6393 21.1807 13.7933 21.5097 13.82 21.8597C13.8467 22.2098 13.7442 22.5576 13.5312 22.8397L13.3859 23.0037C13.1329 23.2513 12.7977 23.4017 12.4412 23.4275C12.0847 23.4533 11.7306 23.3528 11.4433 23.1442L11.2761 23.0037L7.29136 19.0959C7.03854 18.848 6.88483 18.5194 6.85816 18.1698C6.8315 17.8202 6.93366 17.4728 7.14606 17.1908L7.29136 17.0249L11.2761 13.1191C11.5428 12.8596 11.8995 12.7082 12.275 12.6953C12.6505 12.6823 13.0172 12.8087 13.3018 13.0491C13.5865 13.2896 13.7682 13.6265 13.8108 13.9926C13.8533 14.3587 13.7535 14.7271 13.5312 15.0242L13.3859 15.1881L11.9509 16.5955H16.8154C18.0784 16.5957 19.2942 16.1249 20.2164 15.2786C21.1386 14.4322 21.698 13.2736 21.7814 12.0377L21.7914 11.7176C21.7914 10.7514 21.5047 9.85157 21.0131 9.09422C20.8748 8.87216 20.7993 8.61795 20.7944 8.35778C20.7896 8.0976 20.8555 7.84086 20.9855 7.61399C21.1155 7.38712 21.3048 7.19832 21.5339 7.06703C21.763 6.93575 22.0236 6.86672 22.2889 6.86707Z" fill="#050505"/>
<path d="M12.2777 0.428902C12.5305 0.180972 12.8656 0.0302288 13.2221 0.00407981C13.5785 -0.0220692 13.9328 0.078113 14.2203 0.286411L14.3875 0.428902L18.3723 4.33471L18.5176 4.50063C18.7051 4.74935 18.8074 5.04992 18.8099 5.35921C18.8124 5.6685 18.7149 5.97062 18.5315 6.22223L18.3723 6.40571L14.3875 10.3135L14.2203 10.454C13.9669 10.6382 13.6605 10.7388 13.3452 10.7417C13.0298 10.7445 12.7216 10.6492 12.4648 10.4696L12.2777 10.3135L12.1324 10.1495C11.9445 9.90061 11.8419 9.59966 11.8394 9.28996C11.8369 8.98026 11.9346 8.67776 12.1185 8.42596L12.2777 8.24248L13.7128 6.83319H8.85424C7.5909 6.83299 6.37478 7.30405 5.45257 8.15082C4.53035 8.99758 3.97109 10.1566 3.88821 11.3929L3.87826 11.715C3.87826 12.5367 4.08526 13.3116 4.45149 13.9929L4.67044 14.352C4.87129 14.684 4.93033 15.0803 4.83473 15.4547C4.73912 15.8291 4.4966 16.1514 4.15994 16.3513C3.82328 16.5512 3.41972 16.6127 3.03708 16.5223C2.65443 16.4319 2.32367 16.197 2.11676 15.8687C1.37794 14.7155 0.959529 13.3929 0.903069 12.0322C0.846608 10.6715 1.15406 9.31991 1.79491 8.11173C2.43575 6.90354 3.3877 5.88075 4.55623 5.14491C5.72476 4.40906 7.06923 3.98575 8.45616 3.917L8.85424 3.90724L13.7108 3.90529L12.2777 2.4999L12.1324 2.33399C11.92 2.05199 11.8179 1.70461 11.8445 1.355C11.8712 1.00539 12.0249 0.676774 12.2777 0.428902Z" fill="#050505"/>
</svg>
