<svg width="23" height="22" viewBox="0 0 23 22" fill="none" xmlns="http://www.w3.org/2000/svg">
<path d="M20.0739 13.7232C19.8333 13.4761 19.5069 13.3373 19.1666 13.3373C18.8264 13.3373 18.5 13.4761 18.2594 13.7232C18.0188 13.9703 17.8836 14.3054 17.8836 14.6549C17.8836 15.0043 18.0188 15.3394 18.2594 15.5865L18.63 15.967H16.6111C15.2555 15.967 13.9555 15.414 12.997 14.4297C12.0385 13.4454 11.5 12.1104 11.5 10.7184C11.5 9.32634 12.0385 7.99133 12.997 7.00701C13.9555 6.0227 15.2555 5.46972 16.6111 5.46972H18.6428L18.2594 5.85025C18.1397 5.97223 18.0446 6.11736 17.9797 6.27726C17.9149 6.43715 17.8815 6.60866 17.8815 6.78188C17.8815 6.9551 17.9149 7.12661 17.9797 7.28651C18.0446 7.44641 18.1397 7.59154 18.2594 7.71352C18.3788 7.83513 18.5204 7.93135 18.6761 7.99664C18.8318 8.06194 18.9985 8.09504 19.1666 8.09405C19.3348 8.09504 19.5015 8.06194 19.6572 7.99664C19.8129 7.93135 19.9545 7.83513 20.0739 7.71352L22.6294 5.08919C22.7478 4.96658 22.8415 4.82118 22.9051 4.6613C22.9687 4.50143 23.001 4.33025 23 4.15756C23.001 3.98487 22.9687 3.81368 22.9051 3.65381C22.8415 3.49394 22.7478 3.34853 22.6294 3.22592L20.0739 0.601595C19.9547 0.47925 19.8133 0.382202 19.6576 0.31599C19.502 0.249778 19.3351 0.215698 19.1666 0.215698C18.8264 0.215698 18.5 0.354509 18.2594 0.601595C18.0188 0.84868 17.8836 1.1838 17.8836 1.53323C17.8836 1.88266 18.0188 2.21778 18.2594 2.46487L18.63 2.84539H16.6111C15.3452 2.84634 14.0992 3.16919 12.9844 3.7851C11.8695 4.40102 10.9206 5.29084 10.2222 6.37511C9.52385 5.29084 8.57489 4.40102 7.46007 3.7851C6.34524 3.16919 5.09925 2.84634 3.83333 2.84539H1.27778C0.938889 2.84539 0.613882 2.98364 0.374252 3.22972C0.134622 3.4758 0 3.80955 0 4.15756C0 4.50556 0.134622 4.83932 0.374252 5.0854C0.613882 5.33147 0.938889 5.46972 1.27778 5.46972H3.83333C5.18888 5.46972 6.48891 6.0227 7.44743 7.00701C8.40595 7.99133 8.94444 9.32634 8.94444 10.7184C8.94444 12.1104 8.40595 13.4454 7.44743 14.4297C6.48891 15.414 5.18888 15.967 3.83333 15.967H1.27778C0.938889 15.967 0.613882 16.1053 0.374252 16.3513C0.134622 16.5974 0 16.9312 0 17.2792C0 17.6272 0.134622 17.9609 0.374252 18.207C0.613882 18.4531 0.938889 18.5914 1.27778 18.5914H3.83333C5.09925 18.5904 6.34524 18.2676 7.46007 17.6516C8.57489 17.0357 9.52385 16.1459 10.2222 15.0616C10.9206 16.1459 11.8695 17.0357 12.9844 17.6516C14.0992 18.2676 15.3452 18.5904 16.6111 18.5914H18.6428L18.2594 18.9719C18.1397 19.0939 18.0446 19.239 17.9797 19.3989C17.9149 19.5588 17.8815 19.7303 17.8815 19.9035C17.8815 20.0767 17.9149 20.2482 17.9797 20.4081C18.0446 20.568 18.1397 20.7132 18.2594 20.8351C18.3788 20.9568 18.5204 21.053 18.6761 21.1183C18.8318 21.1836 18.9985 21.2167 19.1666 21.2157C19.3348 21.2167 19.5015 21.1836 19.6572 21.1183C19.8129 21.053 19.9545 20.9568 20.0739 20.8351L22.6294 18.2108C22.7478 18.0882 22.8415 17.9428 22.9051 17.7829C22.9687 17.6231 23.001 17.4519 23 17.2792C23.001 17.1065 22.9687 16.9353 22.9051 16.7754C22.8415 16.6156 22.7478 16.4702 22.6294 16.3476L20.0739 13.7232Z" fill="#050505"/>
</svg>
