<svg width="25" height="22" viewBox="0 0 25 22" fill="none" xmlns="http://www.w3.org/2000/svg">
<path d="M24.9297 17.9075C24.9297 20.5471 21.9255 22.1794 19.5644 20.8206L7.06604 13.6288C4.7722 12.3091 4.7722 9.12253 7.06605 7.80274L19.5626 0.610996C21.9238 -0.747862 24.9279 0.882767 24.9279 3.52405L24.9279 17.9075L24.9297 17.9075Z" fill="#050505"/>
<path d="M8.88922 10.7188L21.3876 17.9105L21.3876 3.52702L8.88922 10.7188Z" fill="black"/>
<path d="M1.90203 20.9062C1.43225 20.9062 0.981711 20.7273 0.649526 20.4087C0.317341 20.0902 0.130723 19.6582 0.130723 19.2077L0.130725 2.22197C0.130725 1.77148 0.317343 1.33944 0.649528 1.02089C0.981712 0.702352 1.43225 0.523397 1.90203 0.523397C2.37181 0.523397 2.82235 0.702352 3.15454 1.02089C3.48672 1.33944 3.67334 1.77148 3.67334 2.22197L3.67334 19.2077C3.67334 19.6582 3.48672 20.0902 3.15454 20.4087C2.82235 20.7273 2.37181 20.9062 1.90203 20.9062Z" fill="#050505"/>
</svg>
