<svg width="15" height="15" viewBox="0 0 15 15" fill="none" xmlns="http://www.w3.org/2000/svg">
<path fill-rule="evenodd" clip-rule="evenodd" d="M1.5 6.43889C1.5 3.71122 3.71122 1.5 6.43889 1.5C9.16656 1.5 11.3778 3.71122 11.3778 6.43889C11.3778 7.76806 10.8527 8.9746 9.9987 9.8624C9.97353 9.88185 9.9493 9.90312 9.92621 9.92621C9.90312 9.9493 9.88185 9.97353 9.8624 9.9987C8.9746 10.8527 7.76806 11.3778 6.43889 11.3778C3.71122 11.3778 1.5 9.16656 1.5 6.43889ZM10.4307 11.4914C9.33345 12.3595 7.94669 12.8778 6.43889 12.8778C2.88279 12.8778 0 9.99499 0 6.43889C0 2.88279 2.88279 0 6.43889 0C9.99499 0 12.8778 2.88279 12.8778 6.43889C12.8778 7.94669 12.3595 9.33345 11.4914 10.4307L14.0802 13.0195C14.3731 13.3124 14.3731 13.7873 14.0802 14.0802C13.7873 14.3731 13.3124 14.3731 13.0195 14.0802L10.4307 11.4914Z" fill="white"/>
</svg>
