<svg width="25" height="25" viewBox="0 0 25 25" fill="none" xmlns="http://www.w3.org/2000/svg">
<path d="M12.5 2.5C6.986 2.5 2.5 6.986 2.5 12.5C2.5 18.014 6.986 22.5 12.5 22.5C18.014 22.5 22.5 18.014 22.5 12.5C22.5 6.986 18.014 2.5 12.5 2.5ZM12.5 20.5C8.089 20.5 4.5 16.911 4.5 12.5C4.5 8.089 8.089 4.5 12.5 4.5C16.911 4.5 20.5 8.089 20.5 12.5C20.5 16.911 16.911 20.5 12.5 20.5Z" fill="white"/>
<path d="M12.5 2.5C6.986 2.5 2.5 6.986 2.5 12.5C2.5 18.014 6.986 22.5 12.5 22.5C18.014 22.5 22.5 18.014 22.5 12.5C22.5 6.986 18.014 2.5 12.5 2.5ZM12.5 20.5C8.089 20.5 4.5 16.911 4.5 12.5C4.5 8.089 8.089 4.5 12.5 4.5C16.911 4.5 20.5 8.089 20.5 12.5C20.5 16.911 16.911 20.5 12.5 20.5Z" stroke="black"/>
<path d="M15.329 15.328C14.9628 15.6915 14.5312 15.9826 14.057 16.186C13.2024 16.5472 12.2487 16.6001 11.3594 16.3355C10.47 16.071 9.7003 15.5056 9.182 14.736L7.524 15.855C7.95713 16.4925 8.50717 17.0422 9.145 17.475C9.79511 17.9134 10.5249 18.2202 11.293 18.378C12.0897 18.5416 12.9113 18.5416 13.708 18.378C14.4761 18.2202 15.2059 17.9134 15.856 17.475C16.169 17.263 16.468 17.017 16.742 16.744C17.014 16.473 17.262 16.173 17.476 15.855L15.818 14.736C15.6744 14.9485 15.5106 15.1468 15.329 15.328Z" fill="white"/>
<path d="M9 12.5C9.82843 12.5 10.5 11.8284 10.5 11C10.5 10.1716 9.82843 9.5 9 9.5C8.17157 9.5 7.5 10.1716 7.5 11C7.5 11.8284 8.17157 12.5 9 12.5Z" fill="white"/>
<path d="M15.993 12.486C16.8176 12.486 17.486 11.8176 17.486 10.993C17.486 10.1684 16.8176 9.5 15.993 9.5C15.1684 9.5 14.5 10.1684 14.5 10.993C14.5 11.8176 15.1684 12.486 15.993 12.486Z" fill="white"/>
</svg>
